# xmcd CD database file
#
# Track frame offsets:
#	150
#	13958
#	28412
#	42875
#	57719
#	72452
#	87224
#	100993
#	116161
#	130443
#	142819
#	157714
#
# Disc length: 2324 seconds
#
# Revision: 1
# Processed by: cddbd v1.5.2PL0 Copyright (c) Steve Scherf et al.
# Submitted via: CDex 1.70beta2
#
DISCID=ac09120c
DTITLE=Tim Hicks, 1979- - Throw down
DYEAR=2013
DGENRE=Country Can 2011-2020
TTITLE0=Hell Raisin' Good Time - Jeff Coplan, Tim Hicks, Casey Marshall, Neil Sanderson
TTITLE1=Get By - Shawn Hamm, Tim Hicks, Tyler Hubbard, Brian Kelley, Casey Marshall, Neil Sanderson
TTITLE2=Just Add Water - Jeff Coplan, Tim Hicks
TTITLE3=Buzz, Buzz, Buzzing - Jaron Boyer, Ben Stennis
TTITLE4=Got a Feeling - Noll Billings, Jeff Coplan, Tim Hicks
TTITLE5=Long Way Jose - Larry Haack, Tim Hicks
TTITLE6=Stronger Beer - Jeff Coplan, Tim Hicks
TTITLE7=Sure Ain't Tough Tonight - Jeff Coplan, Tim Hicks
TTITLE8=Nothing On You and Me - Jeff Coplan, Tim Hicks, Casey Marshall, Neil Sanderson
TTITLE9=Greasy John Deere Cap - Rob Harris, Greg Johnson
TTITLE10=Can't Get Enough - Tim Hicks, Jason Matthews, Steve Pasch
TTITLE11=Cheers To You - Jason Blaine, Jeff Coplan, Tim Hicks
EXTD=YEAR: 2013
EXTT0=
EXTT1=
EXTT2=
EXTT3=
EXTT4=
EXTT5=
EXTT6=
EXTT7=
EXTT8=
EXTT9=
EXTT10=
EXTT11=
PLAYORDER=
